# xmcd CD database file
#
# Track frame offsets:
#	150
#	15443
#	32693
#	55138
#	74169
#	95186
#	110276
#	129109
#	149725
#	163512
#	181681
#
# Disc length: 2649 seconds
#
# Revision: 0
# Processed by: cddbd v1.5.2PL0 Copyright (c) Steve Scherf et al.
# Submitted via: CDex 2.19
#
DISCID=940a570b
DTITLE=Imogen Clark - Collide
DYEAR=2018
DGENRE=Country
TTITLE0=Collide
TTITLE1=Late night girl
TTITLE2=Too late
TTITLE3=You got the world fooled
TTITLE4=Strike a pose
TTITLE5=Left behind
TTITLE6=Tear it down
TTITLE7=High tide
TTITLE8=Your anyhting at all
TTITLE9=Play it safe
TTITLE10=Oblivion
EXTD=YEAR: 2018
EXTT0=
EXTT1=
EXTT2=
EXTT3=
EXTT4=
EXTT5=
EXTT6=
EXTT7=
EXTT8=
EXTT9=
EXTT10=
PLAYORDER=
